<?xml version="1.0" encoding="UTF-8"?>
<svg version="1.1" xmlns="http://www.w3.org/2000/svg" width="1024" height="1024">
<path d="M0 0 C337.92 0 675.84 0 1024 0 C1024 337.92 1024 675.84 1024 1024 C686.08 1024 348.16 1024 0 1024 C0 686.08 0 348.16 0 0 Z " fill="#FEFEFE" transform="translate(0,0)"/>
<path d="M0 0 C1.06821991 0.00149048 2.13643982 0.00298096 3.23703003 0.0045166 C21.06299254 0.04904122 38.51768075 0.85091501 56.1875 3.3125 C57.2506543 3.45703613 58.31380859 3.60157227 59.40917969 3.75048828 C123.58898623 12.74681944 189.95487807 42.93764192 237.7109375 87.046875 C239.70977586 88.8754653 241.73754678 90.64289371 243.79296875 92.40625 C248.6203989 96.6209592 253.16616023 101.10508116 257.69604492 105.63574219 C259.11418284 107.05169947 260.54046665 108.45948289 261.96679688 109.8671875 C268.14974458 116.03724511 273.7485732 122.48377201 279.1875 129.3125 C280.05094129 130.34000547 280.9193337 131.3634164 281.796875 132.37890625 C298.81479902 152.2227994 313.00543861 174.59372069 324.18385315 198.21078491 C325.19229311 200.32253715 326.22259737 202.42237913 327.25756836 204.52124023 C332.76072629 215.77475055 337.31722309 227.15470171 341.375 239 C341.67565369 239.86924103 341.97630737 240.73848206 342.28607178 241.63406372 C371.66613578 326.75949217 367.1130929 421.96753958 327.1875 509.3125 C326.78563477 510.1698877 326.38376953 511.02727539 325.96972656 511.91064453 C313.77530943 537.68989783 298.21899955 561.45287024 279.87890625 583.27246094 C278.63541693 584.7722584 277.41162432 586.28844186 276.19921875 587.81347656 C270.9204989 594.41894609 265.28324474 600.529231 259.28613281 606.47460938 C257.81337477 607.93663161 256.35164955 609.40907488 254.890625 610.8828125 C249.3916479 616.38943969 243.69253356 621.51500918 237.60791016 626.37792969 C235.65392461 627.93969905 233.747168 629.52693098 231.8671875 631.17578125 C213.27924712 647.40786846 192.02487428 660.46716841 170.34765625 672.14208984 C168.26330467 673.27142771 166.19341322 674.42382026 164.125 675.58203125 C119.48516193 700.2950082 67.11210159 713.30603922 16.1875 714.3125 C15.39569336 714.33296387 14.60388672 714.35342773 13.78808594 714.37451172 C-23.2136683 715.23320222 -60.54372201 710.71419331 -95.8125 699.3125 C-96.86018555 698.97879395 -97.90787109 698.64508789 -98.98730469 698.30126953 C-127.87645168 689.00525689 -155.32765853 676.35748356 -181.11572266 660.35791016 C-182.80031395 659.32000801 -184.49977225 658.30636418 -186.19921875 657.29296875 C-193.17551952 653.10718829 -199.69704671 648.56095296 -206.13476562 643.59130859 C-207.98556233 642.18058782 -209.8575184 640.80162797 -211.734375 639.42578125 C-218.97981028 634.09929113 -225.88806653 628.68060772 -232.453125 622.5234375 C-234.44546848 620.65644013 -236.47478746 618.88260414 -238.5625 617.125 C-247.93656789 608.97363662 -256.92692723 599.9116044 -264.8125 590.3125 C-265.26270508 589.77608887 -265.71291016 589.23967773 -266.17675781 588.68701172 C-274.34566632 578.95072284 -281.82128967 568.92333112 -288.8125 558.3125 C-289.2038916 557.72259277 -289.5952832 557.13268555 -289.99853516 556.52490234 C-338.32160015 483.49468865 -359.62033656 395.19171126 -347.8125 308.3125 C-347.60367188 306.74338867 -347.60367188 306.74338867 -347.390625 305.14257812 C-340.77340126 257.07580012 -322.53418376 208.44511532 -296.8125 167.3125 C-296.18085938 166.29414063 -295.54921875 165.27578125 -294.8984375 164.2265625 C-283.96127134 147.23904909 -270.55877341 131.5954299 -256.96484375 116.6875 C-255.56370328 115.14141396 -254.17978206 113.57948822 -252.81640625 112 C-239.28577234 96.44872322 -223.18317163 82.69789751 -206.54541016 70.58154297 C-204.60760511 69.16245159 -202.68518844 67.72361214 -200.76171875 66.28515625 C-189.86132185 58.19662579 -178.59749136 51.03792149 -166.8125 44.3125 C-165.89227051 43.78124512 -164.97204102 43.24999023 -164.02392578 42.70263672 C-131.85452643 24.23471385 -97.12099629 12.49880988 -60.8125 5.3125 C-59.98685547 5.14524414 -59.16121094 4.97798828 -58.31054688 4.80566406 C-38.98353348 0.92858847 -19.67328958 -0.06822552 0 0 Z " fill="#FB971B" transform="translate(507.8125,137.6875)"/>
<path d="M0 0 C2.51141471 3.10472627 4.44281103 6.42914867 6.41162109 9.88745117 C11.09445867 18.09989021 16.09400448 25.44944669 22.36767578 32.54736328 C40.83751203 53.4546573 54.28565653 76.1474756 53 105 C52.48413188 109.3646929 51.80380112 113.67956896 51 118 C51.72445313 118.24234375 52.44890625 118.4846875 53.1953125 118.734375 C62.05931039 121.8072276 62.05931039 121.8072276 65.4375 124.3125 C67.76404619 126.2248207 67.76404619 126.2248207 69.95703125 125.828125 C72.50220136 124.79643081 73.53107745 123.56946461 75.25 121.4375 C75.86488281 120.71046875 76.47976563 119.9834375 77.11328125 119.234375 C77.73589844 118.49703125 78.35851562 117.7596875 79 117 C91.77991077 102.27466956 109.5764907 92.64381906 128.63671875 89.41259766 C148.77915432 85.89599475 168.53427016 81.25559361 188 75 C187.13410855 79.04082675 186.26424893 83.05381833 185.15234375 87.03515625 C182.17463096 97.92128844 180.50264987 108.95412859 178.92651367 120.11352539 C177.10554363 132.7391941 174.52501896 145.08540331 168.875 156.625 C168.48812012 157.42421875 168.10124023 158.2234375 167.70263672 159.046875 C160.76976681 172.87371294 150.17593976 184.53468238 138 194 C138.27585937 194.54785156 138.55171875 195.09570312 138.8359375 195.66015625 C140.12092033 198.24305798 141.38859051 200.83091741 142.625 203.4375 C143.07101562 204.36433594 143.51703125 205.29117188 143.9765625 206.24609375 C145.02939982 209.07911021 145.0819836 211.0163602 145 214 C145.72413086 213.86070068 146.44826172 213.72140137 147.19433594 213.57788086 C170.83569862 209.29653868 191.94945446 211.25581338 212 225 C216.15899933 228.01458475 220.14089858 231.24703415 224.12548828 234.48632812 C234.1615086 242.59043414 244.47852076 250.17791766 255.28808594 257.21850586 C256.00641602 257.68651611 256.72474609 258.15452637 257.46484375 258.63671875 C258.100271 259.04623779 258.73569824 259.45575684 259.39038086 259.87768555 C261 261 261 261 263 263 C261.78376953 263.70962891 261.78376953 263.70962891 260.54296875 264.43359375 C250.72490834 270.29699886 242.19348343 277.00606983 233.8125 284.8125 C216.59113303 300.58648713 196.46919845 315.10918542 172.2109375 315.1328125 C170.93992187 315.13410156 169.66890625 315.13539063 168.359375 315.13671875 C167.04453125 315.13285156 165.7296875 315.12898438 164.375 315.125 C163.03906155 315.1285651 161.70312395 315.13246834 160.3671875 315.13671875 C158.46453125 315.13478516 158.46453125 315.13478516 156.5234375 315.1328125 C155.36763184 315.13168457 154.21182617 315.13055664 153.02099609 315.12939453 C150.4863072 315.02082939 148.40958905 314.74408346 146 314 C145.76216797 314.94359375 145.76216797 314.94359375 145.51953125 315.90625 C144.02625102 321.38436089 142.23485171 325.7054771 138.890625 330.30859375 C138.59671875 330.86675781 138.3028125 331.42492187 138 332 C139.25599582 335.76798747 140.8011362 336.607038 143.9375 339 C166.26474054 357.00025594 176.14552622 381.68476131 179.69384766 409.59667969 C180.22931919 413.8001739 180.82791422 417.99419152 181.4375 422.1875 C181.55609375 423.01443359 181.6746875 423.84136719 181.796875 424.69335938 C182.8309976 431.57843881 184.45076592 438.21016099 186.328125 444.91015625 C187 448 187 448 186 451 C185.1028125 450.61328125 184.205625 450.2265625 183.28125 449.828125 C169.2379371 443.90330432 155.64158742 441.00549324 140.5625 439.0625 C110.88552436 435.16687766 91.08074406 424.24886776 72 401 C71.67 400.34 71.34 399.68 71 399 C68.87008425 400.05271698 66.76072119 401.12865745 64.66796875 402.25390625 C59.69049121 404.8798196 55.63243461 406.63266731 50 407 C50.32097656 408.03769531 50.64195312 409.07539062 50.97265625 410.14453125 C52.49130655 416.2635217 52.40742518 422.4152298 52.4375 428.6875 C52.47037109 429.87794922 52.50324219 431.06839844 52.53710938 432.29492188 C52.65517943 452.03408762 41.21981885 467.26967377 29.37207031 482.02783203 C18.37644067 495.75508035 8.63072997 510.03352494 0.18359375 525.48046875 C-0.20699219 525.98191406 -0.59757812 526.48335937 -1 527 C-1.99 527 -2.98 527 -4 527 C-4.53367187 525.94683594 -5.06734375 524.89367187 -5.6171875 523.80859375 C-12.18172682 511.02603913 -19.68417384 499.39564484 -28.28637695 487.8972168 C-45.12884107 465.36530524 -56.32278866 442.29329642 -52.546875 413.55078125 C-52.10746327 411.35058395 -51.56924165 409.1702338 -51 407 C-51.9075 406.95875 -52.815 406.9175 -53.75 406.875 C-58.78928093 406.20240604 -62.99506414 403.64002226 -67.42578125 401.27734375 C-69.81964245 399.85183569 -69.81964245 399.85183569 -72 400 C-73.38026848 401.55155406 -73.38026848 401.55155406 -74.75 403.5625 C-75.29011719 404.29855469 -75.83023438 405.03460937 -76.38671875 405.79296875 C-77.34789659 407.10789727 -78.30889904 408.42295407 -79.26953125 409.73828125 C-93.41504378 427.64453427 -115.92623379 436.38802542 -137.86676025 439.11434937 C-151.92500992 440.88390621 -165.21237711 443.84800993 -178.70410156 448.25927734 C-181.7823752 449.25241667 -184.88397748 450.13348963 -188 451 C-187.87471924 450.41549072 -187.74943848 449.83098145 -187.62036133 449.22875977 C-184.94093616 436.59961429 -182.65565773 423.98710183 -180.86514282 411.2059021 C-176.75721317 382.112382 -166.0238814 353.66756347 -142 335 C-140.98528821 334.01493148 -139.98008246 333.0195285 -139 332 C-139.33773437 331.38253906 -139.67546875 330.76507812 -140.0234375 330.12890625 C-143.0269228 324.42575643 -144.87405577 319.34623111 -146 313 C-147.2684375 313.4640625 -147.2684375 313.4640625 -148.5625 313.9375 C-166.75098571 319.55939558 -188.07353302 316.93637575 -204.75 308.3125 C-214.77464804 302.81569428 -222.87281291 295.16358361 -231.25 287.4765625 C-240.99480953 278.7006971 -251.39390326 270.18991826 -263 264 C-261.62374207 259.87122622 -258.77128675 258.65358271 -255.25 256.4375 C-246.4165394 250.70839682 -238.13920015 244.42387866 -230.01953125 237.7265625 C-210.17400731 221.35752396 -189.58003936 209.34575704 -163 211 C-149.36990596 212.81504702 -149.36990596 212.81504702 -145 215 C-144.979375 213.96875 -144.95875 212.9375 -144.9375 211.875 C-144.15039884 205.06165562 -140.20440755 198.95701873 -137 193 C-138.07507813 192.61134766 -138.07507813 192.61134766 -139.171875 192.21484375 C-154.6112994 185.58271531 -162.86956225 171.87068287 -169 157 C-170.74744964 152.41742544 -172.25042292 147.76236729 -173.69067383 143.07543945 C-174.31312373 141.06048091 -174.96116229 139.05499136 -175.61132812 137.04882812 C-178.17308178 128.94733758 -179.7340579 121.11647912 -180.59301758 112.66162109 C-181.93148487 100.61943006 -185.16394837 88.76169637 -188 77 C-183.92075897 77.68751253 -180.25516838 78.9554262 -176.375 80.375 C-165.57550301 84.10726763 -154.40808643 85.43921903 -143.0859375 86.63671875 C-114.34382748 89.7396383 -95.80042515 99.50231124 -76.48828125 120.96484375 C-74.84724224 123.20888923 -73.92254013 125.38689371 -73 128 C-72.33355469 127.52949219 -71.66710937 127.05898438 -70.98046875 126.57421875 C-64.49911214 122.19590373 -58.66525036 119.55677232 -51 118 C-51.144375 117.35417969 -51.28875 116.70835937 -51.4375 116.04296875 C-55.42041689 95.8241337 -53.73750839 76.24985932 -42.24072266 58.8125 C-36.34773908 50.20378098 -29.84327882 42.05303212 -23.375 33.875 C-14.81159678 23.04733854 -7.05679121 11.86644779 0 0 Z " fill="#FEFEFE" transform="translate(513,232)"/>
<path d="M0 0 C8.31239284 4.93500131 12.96285797 11.79608165 16.48046875 20.75 C18.09681667 29.80154838 16.63724829 37.4791923 14.10546875 46.25 C14.79769531 46.88164062 15.48992187 47.51328125 16.203125 48.1640625 C22.13291581 53.58264671 28.03839358 59.02695588 33.91796875 64.5 C34.52713135 65.06541504 35.13629395 65.63083008 35.76391602 66.21337891 C38.83003625 69.07264944 41.84288299 71.97005175 44.796875 74.9453125 C47.19583249 77.36072651 49.63416448 79.66977085 52.23046875 81.875 C54.5990774 83.89219658 56.73792678 85.91794611 58.79296875 88.25 C60.92776375 90.56075333 60.92776375 90.56075333 63.73046875 90.125 C64.51421875 89.83625 65.29796875 89.5475 66.10546875 89.25 C74.48457954 86.45696307 87.05650499 86.93743276 95 90.875 C103.07020219 96.14533612 107.69241646 102.90915241 110.10546875 112.25 C111.44886143 122.99714144 109.74989658 131.88986125 103.10546875 140.5 C97.0124852 146.83773342 89.81235733 150.47443759 81.01000977 150.75341797 C75.80824567 150.74491935 71.16688327 150.42482547 66.23046875 148.625 C64.19813802 147.93358554 64.19813802 147.93358554 62.10546875 148.25 C59.28209096 150.35308298 57.06934654 152.65724444 54.7578125 155.30859375 C52.78742017 157.49372692 50.95435188 159.31131765 48.7421875 161.20703125 C42.64285162 166.46256 36.79030276 171.96978854 31.00195312 177.56396484 C29.64847667 178.86022913 28.28269398 180.1437588 26.90527344 181.41455078 C18.79707487 188.25543127 18.79707487 188.25543127 14.67529297 197.48242188 C15.19232269 200.2991811 15.99547204 202.6209418 17.10546875 205.25 C18.30674426 213.71956076 15.08285896 221.86761359 10.16796875 228.6875 C4.34966914 235.7762968 -2.37186537 239.60271981 -11.52734375 240.67578125 C-21.87464613 241.04159497 -29.01225942 239.01580559 -36.70703125 232.0625 C-44.212861 223.97110907 -46.12259246 215.19555782 -46.0625 204.53515625 C-45.85617319 200.49978773 -45.10067376 197.09457924 -43.89453125 193.25 C-44.39082031 192.8375 -44.88710938 192.425 -45.3984375 192 C-46.07777344 191.4225 -46.75710938 190.845 -47.45703125 190.25 C-48.11832031 189.693125 -48.77960938 189.13625 -49.4609375 188.5625 C-51.48997515 186.6344257 -53.26474338 184.69924896 -55.08007812 182.578125 C-58.67934817 178.44219017 -62.46814078 174.54744905 -66.359375 170.6875 C-67.03754776 170.01074219 -67.71572052 169.33398438 -68.41444397 168.63671875 C-70.5512743 166.50542325 -72.69157948 164.37765782 -74.83203125 162.25 C-76.29385248 160.79320221 -77.75544312 159.33617299 -79.21679688 157.87890625 C-82.77338525 154.33326027 -86.33309141 150.79077261 -89.89453125 147.25 C-90.90617088 147.5660746 -90.90617088 147.5660746 -91.93824768 147.88853455 C-92.82946823 148.16242508 -93.72068878 148.43631561 -94.63891602 148.71850586 C-95.51959244 148.99109726 -96.40026886 149.26368866 -97.30763245 149.54454041 C-105.36797143 151.74263314 -114.43343715 151.54320782 -121.95703125 147.8125 C-130.73986808 142.19940879 -134.7601743 134.62323309 -137.58203125 124.875 C-138.69633979 115.51480829 -137.83011092 107.93915441 -132.3515625 100.01953125 C-126.8055473 93.25516946 -119.58387522 88.03202762 -110.72265625 86.99609375 C-104.4186996 86.68491118 -99.40374621 88.18240522 -93.55859375 90.47265625 C-90.62191288 91.329547 -89.70363708 91.29588734 -86.89453125 90.25 C-84.93232366 88.68393641 -84.93232366 88.68393641 -83.06640625 86.6796875 C-82.34839844 85.9475 -81.63039063 85.2153125 -80.890625 84.4609375 C-80.14941406 83.69007813 -79.40820312 82.91921875 -78.64453125 82.125 C-73.91046109 77.24798278 -69.15655286 72.53033025 -64.00146484 68.09912109 C-59.80725177 64.41812807 -55.82095321 60.52555012 -51.83203125 56.625 C-50.51428711 55.37589844 -50.51428711 55.37589844 -49.16992188 54.1015625 C-47.93338867 52.88726562 -47.93338867 52.88726562 -46.671875 51.6484375 C-45.92156006 50.92317871 -45.17124512 50.19791992 -44.39819336 49.45068359 C-42.61641378 47.33530956 -42.61641378 47.33530956 -43.09204102 44.65869141 C-43.68861186 42.8680714 -44.31506399 41.08735065 -44.95703125 39.3125 C-47.59107965 29.99202105 -46.5557352 20.53379991 -42.43359375 11.875 C-33.74218689 -2.94892235 -15.30277175 -7.38224165 0 0 Z " fill="#FB971B" transform="translate(525.89453125,376.75)"/>
<path d="M0 0 C11.33337843 -0.26145824 22.17563629 0.32327681 33.375 2.0625 C34.10167877 2.17226166 34.82835754 2.28202332 35.57705688 2.39511108 C91.64922099 10.93779262 161.86664884 37.34743868 199 83 C172.91149214 101.2919423 145.55382107 110.38745194 114.0625 115 C97.94016498 117.41031587 84.46452873 122.25809787 70.28125 130.2421875 C67 132 67 132 65 132 C64.59910156 130.75347656 64.19820312 129.50695312 63.78515625 128.22265625 C57.30056469 108.58649032 48.37057809 93.24293149 35.29467773 77.23242188 C22.40690592 61.4482463 9.98902657 45.82774816 4 26 C3.71382812 25.05898437 3.42765625 24.11796875 3.1328125 23.1484375 C1.00591272 15.47134211 0.38172154 7.93483483 0 0 Z " fill="#FEFEFD" transform="translate(529,175)"/>
<path d="M0 0 C4.1512689 1.51307932 7.76959557 3.55574344 11.5625 5.8125 C27.28837311 14.9245343 43.08796299 18.55039813 60.9375 20.875 C72.00179895 22.35500309 81.78393624 24.54708526 92 29 C92.81968262 29.34756348 93.63936523 29.69512695 94.48388672 30.05322266 C108.86389233 36.17424338 121.0621007 42.78696828 133 53 C131.43587635 57.39197633 127.98906227 59.73902831 124.4375 62.5 C123.7676709 63.02553467 123.0978418 63.55106934 122.40771484 64.0925293 C86.5535138 91.96574306 46.08227145 113.65109916 2 125 C0.98679687 125.26651367 -0.02640625 125.53302734 -1.0703125 125.80761719 C-14.17162384 129.21018207 -27.2737879 131.6581351 -40.6875 133.375 C-41.35516388 133.4606723 -42.02282776 133.5463446 -42.71072388 133.63461304 C-49.18230696 134.45108049 -55.46938039 135.08770087 -62 135 C-59.25746447 104.2181087 -46.08966382 78.26745079 -25.63037109 55.47412109 C-11.58478328 39.74831343 -2.6837192 21.00704339 0 0 Z " fill="#FEFEFD" transform="translate(592,681)"/>
<path d="M0 0 C-0.93757108 14.7667445 -4.93977584 28.57129083 -11 42 C-11.28858887 42.65355469 -11.57717773 43.30710938 -11.87451172 43.98046875 C-17.1652908 55.81533207 -24.21622691 65.2527462 -32.609375 75.046875 C-38.82274527 82.3408314 -44.10941993 89.78307164 -49 98 C-49.55558594 98.9178125 -50.11117187 99.835625 -50.68359375 100.78125 C-56.03829302 110.46143361 -58.3447964 121.33934333 -61 132 C-62.16273438 131.41992188 -63.32546875 130.83984375 -64.5234375 130.2421875 C-83.32170839 121.00746264 -101.49347128 115.10627625 -122.39575195 113.34228516 C-149.53154965 111.02254066 -174.35479786 100.05957281 -194 81 C-192.35810173 79.30337179 -190.6924046 77.64593124 -189 76 C-188.04673828 75.06994141 -188.04673828 75.06994141 -187.07421875 74.12109375 C-161.72006988 50.34336865 -128.98426008 32.92182575 -97 20 C-96.1740332 19.66629395 -95.34806641 19.33258789 -94.49707031 18.98876953 C-64.90064567 7.20690705 -31.94106132 -0.75550474 0 0 Z " fill="#FEFEFD" transform="translate(493,175)"/>
<path d="M0 0 C0.35733939 8.75481496 -0.97637018 17.24200336 -2.25 25.875 C-2.36459564 26.65955566 -2.47919128 27.44411133 -2.59725952 28.25244141 C-11.97167182 92.18735254 -38.67684665 152.50308999 -83 200 C-88.87767646 194.53925214 -92.24670454 187.96446832 -96 181 C-96.62519531 179.86820313 -97.25039063 178.73640625 -97.89453125 177.5703125 C-106.68167103 160.99152591 -109.694539 143.3234576 -111.671875 124.8359375 C-113.58198368 107.08419348 -116.77327829 92.27020607 -125.23046875 76.48828125 C-126.81992783 73.35497671 -127.99396432 70.35861144 -129 67 C-128.46745605 66.82984375 -127.93491211 66.6596875 -127.38623047 66.484375 C-106.9614482 59.87390103 -92.74327473 50.75910704 -77.06640625 36.29296875 C-56.72067952 17.54182728 -28.77698671 0 0 0 Z " fill="#FEFEFD" transform="translate(834,510)"/>
<path d="M0 0 C1.82310245 3.22680575 2.85793042 6.57340651 3.95263672 10.09155273 C8.799869 25.56565738 16.33896933 38.35064795 26.97387695 50.6315918 C45.95735081 72.55900916 65.90969422 103.92231611 64 134 C1.19499218 129.1907911 -60.23444434 107.27399843 -110.0859375 68.48779297 C-112.04930381 66.96167635 -114.02389745 65.45098264 -116 63.94140625 C-117.27149602 62.96179704 -118.54235608 61.98136169 -119.8125 61 C-120.39362549 60.55519287 -120.97475098 60.11038574 -121.57348633 59.65209961 C-124.51854147 57.34966598 -126.93578108 55.12892132 -129 52 C-109.33079961 30.29605474 -76.95741152 22.79258273 -49.3046875 18.140625 C-39.47317225 16.43240584 -30.16951781 13.98178211 -20.9375 10.1875 C-19.65214355 9.66736328 -19.65214355 9.66736328 -18.34082031 9.13671875 C-11.96488275 6.51005458 -5.90597375 3.5760942 0 0 Z " fill="#FEFEFD" transform="translate(430,682)"/>
<path d="M0 0 C48.76962662 37.1073246 71.42076103 119.56300135 79.875 176.6875 C79.99528564 177.49372803 80.11557129 178.29995605 80.23950195 179.13061523 C81.00644865 184.77251512 81.12096384 190.31096598 81 196 C50.18421853 189.60356184 25.58896155 181.40127113 1.63720703 160.42382812 C-2.48560889 156.83834312 -6.71790658 153.39263782 -11 150 C-12.30324219 148.96746094 -12.30324219 148.96746094 -13.6328125 147.9140625 C-24.07790742 139.96604567 -35.429527 134.70667794 -48 131 C-47.75354736 130.45811035 -47.50709473 129.9162207 -47.25317383 129.35791016 C-39.32564924 111.78600151 -34.35175559 96.04850722 -32.125 76.875 C-28.89133975 49.06040702 -20.36511856 20.36511856 0 0 Z " fill="#FEFEFD" transform="translate(753,282)"/>
<path d="M0 0 C11.87316148 5.16338369 19.39838833 21.74619174 24.1875 33.0625 C29.86511255 47.8231264 33.12399517 62.95886956 35.4375 78.5625 C38.23369632 97.29463127 43.43394864 113.64438537 53 130 C53.33 130.66 53.66 131.32 54 132 C53.45287354 132.10957031 52.90574707 132.21914063 52.34204102 132.33203125 C33.8573038 136.13050288 18.60878212 141.75242708 4 154 C3.13930908 154.72074707 3.13930908 154.72074707 2.26123047 155.45605469 C-5.07125012 161.61616172 -5.07125012 161.61616172 -12.171875 168.0390625 C-28.20725105 183.04652983 -56.17410153 193.56607223 -78 193 C-72.33037668 126.56535501 -50.72583592 64.25012902 -8.84179688 11.87988281 C-5.75239005 8.01231713 -2.85022444 4.04762573 0 0 Z " fill="#FEFEFD" transform="translate(270,284)"/>
<path d="M0 0 C27.16874326 3.90848587 49.15797119 11.78526984 69.51171875 30.85375977 C73.68351029 34.75939642 78.04062303 38.38249842 82.50390625 41.953125 C84.66564926 43.72582192 86.66681518 45.5721694 88.6875 47.5 C99.68606281 57.16881854 114.45659487 63.6471251 129 65 C127.90331298 68.60675143 126.57813181 72.01925187 125.01171875 75.44140625 C117.34789704 92.21798065 113.64668672 108.46982717 110.8744812 126.64498901 C109.00166247 138.90615355 106.75323072 150.49418534 102 162 C101.69690918 162.75023437 101.39381836 163.50046875 101.08154297 164.2734375 C96.3900086 175.76018358 91.2180204 188.39379511 82 197 C65.86694222 180.03319246 52.14894195 160.33403178 40.97412109 139.78808594 C40.30590895 138.5615231 39.63141546 137.33836757 38.95166016 136.11816406 C15.61920426 94.22651377 3.27938478 47.67772217 0 0 Z " fill="#FEFEFE" transform="translate(192,511)"/>
<path d="M0 0 C7.67179756 2.51150717 12.55569112 8.67656863 17.27044678 14.91087341 C19.60527994 17.75518606 22.29403651 20.03186687 25.10345459 22.39451599 C27.53088119 24.45323168 29.74043113 26.68952447 31.9598999 28.96897888 C34.91687014 31.96212 37.89307482 34.8527644 41.0848999 37.59397888 C41.71654053 38.15601013 42.34818115 38.71804138 42.9989624 39.29710388 C44.9626285 41.02202354 44.9626285 41.02202354 47.2333374 42.57835388 C50.23324553 44.9572284 52.61089923 46.94103014 53.28753662 50.87278748 C53.56380538 55.18002396 53.35944162 59.44581254 52.97332764 63.7407074 C52.87197172 66.1735975 52.87197172 66.1735975 53.73309326 69.27745056 C53.9598999 72.96897888 53.9598999 72.96897888 52.21992493 75.67098999 C50.9108744 76.95339317 50.9108744 76.95339317 49.57537842 78.26170349 C49.09759949 78.74065063 48.61982056 79.21959778 48.12756348 79.71305847 C46.54953313 81.28553165 44.94512347 82.82780115 43.33880615 84.37132263 C42.2370488 85.45815304 41.13704908 86.54676789 40.03874207 87.63708496 C37.14781551 90.49751369 34.23367784 93.33310653 31.31402588 96.16416931 C28.33717269 99.05908146 25.38293012 101.97686765 22.42669678 104.89280701 C16.62630592 110.60748343 10.80119208 116.29611804 4.9598999 121.96897888 C3.92983826 121.65106888 3.92983826 121.65106888 2.87896729 121.32673645 C1.97819458 121.05189423 1.07742188 120.777052 0.14935303 120.49388123 C-1.19008362 120.08315872 -1.19008362 120.08315872 -2.55657959 119.66413879 C-5.28001922 118.90182334 -7.7120746 118.56713054 -10.5401001 118.59397888 C-11.3547876 118.58624451 -12.1694751 118.57851013 -13.0088501 118.57054138 C-17.50955585 119.16212899 -21.72870596 120.57864928 -26.0401001 121.96897888 C-30.17648812 117.88190583 -34.30635802 113.7884001 -38.43023682 109.68870544 C-39.83502318 108.29399739 -41.24159646 106.90108685 -42.64996338 105.50999451 C-44.67011723 103.51400858 -46.68382665 101.51171698 -48.6963501 99.50804138 C-49.3306897 98.88402435 -49.9650293 98.26000732 -50.61859131 97.61708069 C-52.13086148 96.10520398 -53.591083 94.54158236 -55.0401001 92.96897888 C-55.0401001 92.30897888 -55.0401001 91.64897888 -55.0401001 90.96897888 C-55.7001001 90.96897888 -56.3601001 90.96897888 -57.0401001 90.96897888 C-58.81448935 89.1650984 -60.35965136 87.21477438 -61.9541626 85.25022888 C-63.94631314 82.89177168 -63.94631314 82.89177168 -66.5010376 81.31272888 C-71.15375082 77.96629792 -73.20607177 74.44259846 -74.21905518 68.85569763 C-75.36190623 58.07391115 -74.56205714 49.56394792 -67.71498966 40.8177042 C-63.50222491 35.74799579 -58.83707165 31.11929342 -54.07037354 26.57518005 C-51.32041786 23.95091628 -48.70897512 21.22389654 -46.11188126 18.4494009 C-32.72294992 4.27978201 -20.56035828 -3.62935451 0 0 Z " fill="#FEFEFD" transform="translate(522.0401000976563,435.03102111816406)"/>
<path d="M0 0 C0.33 0 0.66 0 1 0 C0.75 3.375 0.75 3.375 0 7 C-1.8348999 8.02877808 -1.8348999 8.02877808 -4 9 C-5.73805759 10.45227959 -5.73805759 10.45227959 -7.39160156 12.16455078 C-8.0319635 12.80506378 -8.67232544 13.44557678 -9.33209229 14.10549927 C-10.01140808 14.79513763 -10.69072388 15.484776 -11.390625 16.1953125 C-12.44754547 17.25647781 -12.44754547 17.25647781 -13.52581787 18.33908081 C-15.7719539 20.59639862 -18.01103009 22.86057633 -20.25 25.125 C-21.77297717 26.65800953 -23.29640939 28.19056715 -24.8203125 29.72265625 C-28.55216815 33.47654573 -32.27825351 37.23608914 -36 41 C-36.66 40.67 -37.32 40.34 -38 40 C-37.53868179 39.54312302 -37.07736359 39.08624603 -36.60206604 38.61552429 C-31.81097491 33.86860632 -27.0268798 29.11472128 -22.24682617 24.35668945 C-20.46086023 22.58079444 -18.67310519 20.80669681 -16.88354492 19.03442383 C-14.31479394 16.48987277 -11.75250079 13.93897298 -9.19140625 11.38671875 C-8.3872377 10.59287277 -7.58306915 9.79902679 -6.75453186 8.98112488 C-5.64349342 7.87031303 -5.64349342 7.87031303 -4.51000977 6.73706055 C-3.85492935 6.08642136 -3.19984894 5.43578217 -2.5249176 4.76542664 C-0.77843323 2.96999818 -0.77843323 2.96999818 0 0 Z " fill="#FB8407" transform="translate(576,505)"/>
<path d="M0 0 C0.99 0.66 1.98 1.32 3 2 C1.06099294 3.70770419 -0.88175627 5.41062801 -2.83203125 7.10546875 C-4.15418324 8.26086283 -5.46678835 9.42745806 -6.76171875 10.61328125 C-8.3125 12 -8.3125 12 -11 14 C-11.99 13.67 -12.98 13.34 -14 13 C-13.49210937 12.56429688 -12.98421875 12.12859375 -12.4609375 11.6796875 C-8.13240118 7.93477405 -3.99693056 4.09685382 0 0 Z " fill="#FB992C" transform="translate(450,456)"/>
<path d="M0 0 C2 2 2 2 2.125 5.125 C2.08375 6.07375 2.0425 7.0225 2 8 C1.34 8 0.68 8 0 8 C0 10.64 0 13.28 0 16 C-0.33 16 -0.66 16 -1 16 C-1.02712153 14.083412 -1.04645097 12.1667127 -1.0625 10.25 C-1.07410156 9.18265625 -1.08570313 8.1153125 -1.09765625 7.015625 C-1.01510087 4.46631499 -0.74617558 2.42066409 0 0 Z " fill="#FB8E13" transform="translate(161,442)"/>
<path d="M0 0 C0.66 0.33 1.32 0.66 2 1 C-0.31 3.31 -2.62 5.62 -5 8 C-5.99 7.67 -6.98 7.34 -8 7 C-5.36 4.69 -2.72 2.38 0 0 Z " fill="#FA8A10" transform="translate(288,219)"/>
<path d="M0 0 C0.93423645 3.01031744 1.04449911 3.86650268 0 7 C-0.66 7 -1.32 7 -2 7 C-2.33 8.32 -2.66 9.64 -3 11 C-2.25 3.375 -2.25 3.375 0 0 Z " fill="#FB8A0E" transform="translate(484,389)"/>
</svg>
